<svg height="100" viewBox="0 0 100 100" width="100" xmlns="http://www.w3.org/2000/svg"><path d="m50.51 24a1.13 1.13 0 0 1 .69.22c3 3.34 5.92 4.45 8.57 4.45 5.32 0 17.24 3.75 17.44 3.52v2.51c-.21.25-4.28 5-4.05 10.6.13 3.33 1.78 5.58 3.17 8 .55.95 2 3.68 2 3.68v2.42a11.39 11.39 0 0 1 -.24 2.29c-2.73 13.42-15.84 8-26.46 16.72a.82.82 0 0 1 -.51.22.47.47 0 0 1 -.39-.22c-6.44-7.77-26.3-1.29-28.76-16.72a16.86 16.86 0 0 1 -.26-2.69v-2.46s1.44-3.23 1.89-4c1.08-1.93 2.25-3.73 2.38-6.67.22-4.9-3.83-10-4-10.25v-2.51c.21.21 13.56-4.76 19.08-4.76 2.76 0 5.87-1 9-4.14a.72.72 0 0 1 .45-.21z" fill="#9d5025"/><path d="m50.51 21.54a1.13 1.13 0 0 1 .69.22c3 3.34 5.92 4.45 8.57 4.45 5.32 0 9.14-4.26 9.34-4.49l8.1 10.49c-.21.25-4.28 5-4.05 10.6.27 6.57 6.4 8.95 4.89 16.39-2.73 13.42-15.84 8-26.46 16.72a.82.82 0 0 1 -.51.22.47.47 0 0 1 -.39-.22c-6.44-7.77-26.3-1.29-28.76-16.72-1.36-8.46 3.75-9.49 4-15.84.22-4.9-3.83-10-4-10.25l9.43-11.38a14.74 14.74 0 0 0 9.64 4.13c2.76 0 5.87-1 9-4.14a.72.72 0 0 1 .51-.18z" fill="#f58536"/></svg>